<svg width="89" height="25" viewBox="0 0 89 25" fill="none" xmlns="http://www.w3.org/2000/svg">
<path d="M20.9993 6.94385V23.7789H17.0029V6.94385H20.9993Z" fill="black"/>
<path d="M19.0176 5.09201C18.313 5.09201 17.7185 4.85632 17.2341 4.38494C16.7717 3.89111 16.5405 3.28505 16.5405 2.56676C16.5405 1.84846 16.7717 1.25363 17.2341 0.782241C17.7185 0.288417 18.313 0.0415039 19.0176 0.0415039C19.7222 0.0415039 20.3057 0.288417 20.7681 0.782241C21.2525 1.25363 21.4947 1.84846 21.4947 2.56676C21.4947 3.28505 21.2525 3.89111 20.7681 4.38494C20.3057 4.85632 19.7222 5.09201 19.0176 5.09201Z" fill="black"/>
<path d="M13.5729 22.9371C12.2959 23.835 10.8757 24.2839 9.3123 24.2839C7.68292 24.2839 6.37281 23.8238 5.38198 22.9035C4.39114 21.9831 3.89571 20.6924 3.89571 19.0314V10.5466H0.725037V6.94383H3.89571V3.07178H7.8921V6.94383H12.8793V10.5466H7.8921V18.661C7.8921 19.2895 8.04622 19.7721 8.35452 20.1088C8.68474 20.4455 9.16922 20.6138 9.80773 20.6138C10.6665 20.6138 11.5362 20.266 12.417 19.5701L13.5729 22.9371Z" fill="black"/>
<path d="M48.6803 8.22349C47.5794 7.03381 46.0711 6.43896 44.1555 6.43896C43.0986 6.43896 42.1407 6.65221 41.2821 7.0787C40.4233 7.48274 39.6967 8.07758 39.1022 8.86318C38.5958 8.1 37.9462 7.50518 37.1535 7.0787C36.3829 6.65221 35.5022 6.43896 34.5113 6.43896C33.5865 6.43896 32.7278 6.62976 31.9351 7.01136C31.1644 7.3705 30.4929 7.88674 29.9204 8.56015V6.94402H26.0562V23.779H30.0526V14.3177C30.0526 13.1056 30.3608 12.1292 30.9773 11.3885C31.5939 10.6253 32.3975 10.2437 33.3884 10.2437C34.2911 10.2437 34.9847 10.558 35.4692 11.1864C35.9536 11.8149 36.1958 12.7128 36.1958 13.8801V23.779H40.1921V14.3177C40.1921 13.0832 40.4894 12.0955 41.0838 11.3548C41.7004 10.614 42.5151 10.2437 43.5279 10.2437C44.4307 10.2437 45.1243 10.558 45.6087 11.1864C46.0931 11.8149 46.3353 12.7128 46.3353 13.8801V23.779H50.3647V13.072C50.3647 11.0293 49.8033 9.41318 48.6803 8.22349Z" fill="black"/>
<path d="M60.3784 24.2841C58.4188 24.2841 56.7894 23.8464 55.4903 22.971C54.2132 22.0731 53.3985 20.8834 53.0462 19.4019L56.4481 18.2571C56.6903 19.0877 57.1527 19.7499 57.8352 20.2437C58.5178 20.7375 59.3985 20.9844 60.4775 20.9844C61.3803 20.9844 62.0628 20.8273 62.5252 20.513C63.0096 20.1988 63.2518 19.7499 63.2518 19.1662C63.2518 18.5377 62.9876 18.0776 62.4591 17.7858C61.9307 17.4715 60.9729 17.1348 59.5857 16.7757C57.7141 16.3043 56.2499 15.687 55.193 14.9238C54.1581 14.1382 53.6407 12.9485 53.6407 11.3548C53.6407 9.87334 54.2352 8.68364 55.4242 7.78576C56.6132 6.8879 58.1985 6.43896 60.1802 6.43896C61.9637 6.43896 63.461 6.83178 64.672 7.61743C65.883 8.40303 66.6757 9.46925 67.05 10.8161L63.3509 12.0282C63.1307 11.3099 62.7234 10.7599 62.1288 10.3783C61.5564 9.97432 60.8518 9.77228 60.0151 9.77228C58.3196 9.77228 57.4719 10.3223 57.4719 11.4221C57.4719 11.9384 57.7361 12.3312 58.2646 12.6006C58.793 12.8475 59.6738 13.1393 60.9068 13.476C62.1839 13.7902 63.2628 14.127 64.1436 14.4861C65.0243 14.8228 65.7839 15.3727 66.4225 16.1359C67.061 16.8767 67.3803 17.8643 67.3803 19.0989C67.3803 20.109 67.083 21.0069 66.4886 21.7925C65.9161 22.5781 65.0903 23.1954 64.0115 23.6443C62.9546 24.0708 61.7436 24.2841 60.3784 24.2841Z" fill="black"/>
<path fill-rule="evenodd" clip-rule="evenodd" d="M73.8685 23.1393C75.2336 23.9025 76.7637 24.2841 78.4592 24.2841C80.1548 24.2841 81.6853 23.9025 83.05 23.1393C84.4374 22.3536 85.5161 21.2874 86.2867 19.9407C87.058 18.5714 87.4429 17.045 87.4429 15.3615C87.4429 13.678 87.058 12.1629 86.2867 10.8161C85.5161 9.44682 84.4374 8.38061 83.05 7.61743C81.6853 6.83178 80.1548 6.43896 78.4592 6.43896C76.7637 6.43896 75.2336 6.83178 73.8685 7.61743C72.5034 8.38061 71.4354 9.44682 70.6648 10.8161C69.8942 12.1629 69.5088 13.678 69.5088 15.3615C69.5088 17.045 69.8942 18.5714 70.6648 19.9407C71.4354 21.2874 72.5034 22.3536 73.8685 23.1393ZM78.6022 17.7629C79.8787 17.7629 80.914 16.708 80.914 15.4067C80.914 14.1055 79.8787 13.0505 78.6022 13.0505C77.3258 13.0505 76.2913 14.1055 76.2913 15.4067C76.2913 16.708 77.3258 17.7629 78.6022 17.7629Z" fill="black"/>
</svg>
